# 3ds Max Wavefront OBJ Exporter v0.97b - (c)2007 guruware
# File Created: 16.02.2020 17:36:36

mtllib centralStation.mtl

#
# object Box001
#

v  -41.7812 61.6773 52.9260
v  94.6880 61.6773 52.9260
v  94.6880 61.6773 -93.8804
v  -41.7812 61.6773 -93.8804
v  104.6880 0.0000 52.9260
v  104.6880 0.0000 -93.8804
v  104.6880 30.8387 -93.8804
v  104.6880 30.8387 52.9260
v  -231.1218 0.0000 -93.8804
v  -231.1218 0.0000 52.9260
v  -231.1218 30.8387 52.9260
v  -231.1218 30.8387 -93.8804
v  94.6880 30.8387 52.9260
v  -41.7812 30.8387 52.9260
v  104.6880 61.6773 -93.8804
v  104.6880 61.6773 52.9260
v  -41.7812 30.8387 -93.8804
v  94.6880 30.8387 -93.8804
v  -231.1218 61.6773 52.9260
v  -231.1218 61.6773 -93.8804
v  94.6880 0.0000 52.9260
v  94.6880 0.0000 -93.8804
v  -41.7812 0.0000 -93.8804
v  -41.7812 0.0000 52.9260
v  -51.7812 0.0000 52.9260
v  -51.7812 0.0000 -93.8804
v  -51.7812 30.8387 52.9260
v  -51.7812 61.6773 52.9260
v  -51.7812 61.6773 -93.8804
v  -51.7812 30.8387 -93.8804
# 30 vertices

vn 0.0000 0.7071 0.7071
vn 0.0000 0.7071 -0.7071
vn 0.5774 -0.5774 0.5774
vn 0.5774 -0.5774 -0.5774
vn 0.7071 0.0000 -0.7071
vn 0.7071 0.0000 0.7071
vn -0.5774 -0.5774 -0.5774
vn -0.5774 -0.5774 0.5774
vn -0.7071 0.0000 0.7071
vn -0.7071 0.0000 -0.7071
vn 0.0000 0.0000 1.0000
vn 0.5774 0.5774 -0.5774
vn 0.5774 0.5774 0.5774
vn 0.0000 0.0000 -1.0000
vn -0.5774 0.5774 0.5774
vn -0.5774 0.5774 -0.5774
vn 0.0000 -0.7071 0.7071
vn 0.0000 -0.7071 -0.7071
# 18 vertex normals

vt 0.0000 0.0000 0.0000
vt 1.0000 0.0000 0.0000
vt 1.0000 1.0000 0.0000
vt 0.0000 1.0000 0.0000
vt 1.0000 0.5000 0.0000
vt 0.0000 0.5000 0.0000
vt 0.9902 -0.0124 417822.7500
vt 0.9902 1.0093 -418981.7500
vt 0.0098 1.0124 -417821.7500
vt 0.0098 -0.0093 418983.0000
vt -9.5947 -3.5584 1.3929
vt -9.5947 0.5000 1.3929
vt -11.0741 0.5000 1.3929
vt -11.0741 -3.5584 1.3929
vt -9.5947 4.5584 1.3929
vt -11.0741 4.5584 1.3929
vt 0.9702 1.0000 1.0000
vt 0.9702 0.0000 1.0000
vt 1.0000 0.0000 1.0000
vt 1.0000 1.0000 1.0000
vt 3.1123 1.1329 0.0625
vt 3.1123 0.5000 0.0625
vt 3.2778 0.5000 0.0000
vt 3.2778 1.1329 0.0000
vt 3.1123 -0.1329 0.0625
vt 3.2778 -0.1329 0.0000
vt 0.8546 -0.1329 0.4375
vt 0.8546 0.5000 0.4375
vt 0.6892 0.5000 0.5000
vt 0.6892 -0.1329 0.5000
vt 0.8546 1.1329 0.4375
vt 0.6892 1.1329 0.5000
vt 0.5638 0.0000 1.0000
vt 0.5638 1.0000 1.0000
vt 0.5341 1.0000 1.0000
vt 0.5341 0.0000 1.0000
vt 10.5947 4.5584 1.3929
vt 10.5947 0.5000 1.3929
vt 12.0741 0.5000 1.3929
vt 12.0741 4.5584 1.3929
vt 10.5947 -3.5584 1.3929
vt 12.0741 -3.5584 1.3929
vt -2.2778 0.5000 1.0625
vt -2.2778 -0.1329 1.0625
vt 1.5870 0.0000 0.0000
vt 1.5870 1.0000 0.0000
vt -0.5870 1.0000 1.0000
vt -0.5870 0.0000 1.0000
vt 0.0000 1.0000 1.0000
vt 0.0000 0.0000 1.0000
vt 0.4659 1.0000 1.0000
vt 0.4659 0.5000 1.0000
vt 1.0000 0.5000 1.0000
vt 0.4659 0.0000 1.0000
# 54 texture coords

o Box001
g Box001
usemtl Material__37
s 4
f 1/1/1 2/2/1 3/3/2 4/4/2 
s 16
f 5/1/3 6/2/4 7/5/5 8/6/6 
s 64
f 9/1/7 10/2/8 11/5/9 12/6/10 
usemtl Material__25
s 8
f 13/7/11 2/8/1 1/9/1 14/10/11 
usemtl Material__37
s 16
f 7/5/5 15/3/12 16/4/13 8/6/6 
usemtl Material__25
s 32
f 17/5/14 4/3/2 3/4/2 18/6/14 
usemtl Material__37
s 64
f 11/5/9 19/3/15 20/4/16 12/6/10 
usemtl Material__29
s off
f 21/1/17 22/2/18 6/2/4 5/1/3 
usemtl Material__37
f 22/11/18 18/12/14 7/13/5 6/14/4 
f 18/12/14 3/15/2 15/16/12 7/13/5 
f 3/17/2 2/18/1 16/19/13 15/20/12 
f 2/21/1 13/22/11 8/23/6 16/24/13 
f 13/22/11 21/25/17 5/26/3 8/23/6 
usemtl Material__28
f 23/1/18 24/2/17 25/2/17 26/1/18 
usemtl Material__37
f 24/27/17 14/28/11 27/29/11 25/30/17 
f 14/28/11 1/31/1 28/32/1 27/29/11 
f 1/33/1 4/34/2 29/35/2 28/36/1 
f 4/37/2 17/38/14 30/39/14 29/40/2 
f 17/38/14 23/41/18 26/42/18 30/39/14 
usemtl Material__28
f 26/1/18 25/2/17 10/2/8 9/1/7 
usemtl Material__37
f 25/30/17 27/29/11 11/43/9 10/44/8 
usemtl Material__49
f 27/45/11 28/46/1 19/47/15 11/48/9 
usemtl Material__37
f 28/36/1 29/35/2 20/49/16 19/50/15 
f 29/51/2 30/52/14 12/53/10 20/20/16 
f 30/52/14 26/54/18 9/19/7 12/53/10 
# 25 polygons

